<svg width="60" height="60" viewBox="0 0 60 60" fill="none" xmlns="http://www.w3.org/2000/svg">
<rect width="60" height="60" rx="30" fill="#1A8EF7" fill-opacity="0.3"/>
<path d="M30 23.75C28.7639 23.75 27.5555 24.1166 26.5277 24.8033C25.4999 25.4901 24.6988 26.4662 24.2258 27.6082C23.7527 28.7503 23.6289 30.0069 23.8701 31.2193C24.1112 32.4317 24.7065 33.5453 25.5806 34.4194C26.4547 35.2935 27.5683 35.8888 28.7807 36.1299C29.9931 36.3711 31.2497 36.2473 32.3918 35.7742C33.5338 35.3012 34.5099 34.5001 35.1967 33.4723C35.8834 32.4445 36.25 31.2361 36.25 30C36.25 28.3424 35.5915 26.7527 34.4194 25.5806C33.2473 24.4085 31.6576 23.75 30 23.75ZM30 33.75C29.2583 33.75 28.5333 33.5301 27.9166 33.118C27.2999 32.706 26.8193 32.1203 26.5355 31.4351C26.2516 30.7498 26.1774 29.9958 26.3221 29.2684C26.4667 28.541 26.8239 27.8728 27.3483 27.3483C27.8728 26.8239 28.541 26.4667 29.2684 26.3221C29.9958 26.1774 30.7498 26.2516 31.4351 26.5355C32.1203 26.8193 32.706 27.2999 33.118 27.9166C33.5301 28.5333 33.75 29.2583 33.75 30C33.75 30.9946 33.3549 31.9484 32.6517 32.6517C31.9484 33.3549 30.9946 33.75 30 33.75ZM47.5 18.75H12.5C12.1685 18.75 11.8505 18.8817 11.6161 19.1161C11.3817 19.3505 11.25 19.6685 11.25 20V40C11.25 40.3315 11.3817 40.6495 11.6161 40.8839C11.8505 41.1183 12.1685 41.25 12.5 41.25H47.5C47.8315 41.25 48.1495 41.1183 48.3839 40.8839C48.6183 40.6495 48.75 40.3315 48.75 40V20C48.75 19.6685 48.6183 19.3505 48.3839 19.1161C48.1495 18.8817 47.8315 18.75 47.5 18.75ZM40.2578 38.75H19.7422C19.3225 37.3306 18.5544 36.0388 17.5078 34.9922C16.4612 33.9456 15.1694 33.1775 13.75 32.7578V27.2422C15.1694 26.8225 16.4612 26.0544 17.5078 25.0078C18.5544 23.9612 19.3225 22.6694 19.7422 21.25H40.2578C40.6775 22.6694 41.4456 23.9612 42.4922 25.0078C43.5388 26.0544 44.8306 26.8225 46.25 27.2422V32.7578C44.8306 33.1775 43.5388 33.9456 42.4922 34.9922C41.4456 36.0388 40.6775 37.3306 40.2578 38.75ZM46.25 24.5891C44.7507 23.9444 43.5556 22.7493 42.9109 21.25H46.25V24.5891ZM17.0891 21.25C16.4444 22.7493 15.2493 23.9444 13.75 24.5891V21.25H17.0891ZM13.75 35.4109C15.2493 36.0556 16.4444 37.2507 17.0891 38.75H13.75V35.4109ZM42.9109 38.75C43.5556 37.2507 44.7507 36.0556 46.25 35.4109V38.75H42.9109Z" fill="#1A8EF7"/>
</svg>
