<svg width="60" height="60" viewBox="0 0 60 60" fill="none" xmlns="http://www.w3.org/2000/svg">
<rect width="60" height="60" rx="30" fill="#1A8EF7" fill-opacity="0.3"/>
<path d="M27.8671 34.1156L42.8671 19.1156C42.9832 18.9995 43.1211 18.9074 43.2728 18.8445C43.4246 18.7817 43.5872 18.7493 43.7514 18.7493C43.9157 18.7493 44.0783 18.7817 44.2301 18.8445C44.3818 18.9074 44.5197 18.9995 44.6358 19.1156C44.7519 19.2318 44.8441 19.3696 44.9069 19.5214C44.9698 19.6731 45.0021 19.8358 45.0021 20C45.0021 20.1643 44.9698 20.3269 44.9069 20.4786C44.8441 20.6304 44.7519 20.7682 44.6358 20.8844L29.6358 35.8844C29.5197 36.0005 29.3818 36.0926 29.2301 36.1555C29.0783 36.2184 28.9157 36.2507 28.7514 36.2507C28.5872 36.2507 28.4246 36.2184 28.2728 36.1555C28.1211 36.0926 27.9832 36.0005 27.8671 35.8844C27.7509 35.7682 27.6588 35.6304 27.5959 35.4786C27.5331 35.3269 27.5007 35.1643 27.5007 35C27.5007 34.8358 27.5331 34.6731 27.5959 34.5214C27.6588 34.3696 27.7509 34.2318 27.8671 34.1156ZM30.0014 23.75C31.0872 23.7486 32.166 23.9244 33.1952 24.2703C33.3514 24.3257 33.5172 24.3495 33.6827 24.3402C33.8482 24.331 34.0103 24.2889 34.1594 24.2164C34.3085 24.1439 34.4417 24.0425 34.5512 23.918C34.6608 23.7936 34.7444 23.6486 34.7974 23.4914C34.8504 23.3343 34.8715 23.1683 34.8597 23.0029C34.8478 22.8375 34.8032 22.6762 34.7284 22.5282C34.6536 22.3802 34.5501 22.2486 34.424 22.1411C34.2978 22.0335 34.1515 21.9521 33.9936 21.9016C32.0016 21.23 29.8724 21.0717 27.803 21.4412C25.7336 21.8107 23.7908 22.6962 22.1543 24.0157C20.5179 25.3352 19.2406 27.046 18.4407 28.9901C17.6408 30.9341 17.3441 33.0484 17.578 35.1375C17.6118 35.443 17.757 35.7254 17.9859 35.9306C18.2148 36.1359 18.5112 36.2496 18.8186 36.25C18.8639 36.25 18.9108 36.25 18.9577 36.2422C19.2871 36.2057 19.5885 36.0398 19.7957 35.7811C20.0029 35.5224 20.0988 35.1919 20.0624 34.8625C20.0217 34.4931 20.0013 34.1217 20.0014 33.75C20.0043 31.0987 21.0588 28.5569 22.9336 26.6821C24.8083 24.8074 27.3502 23.7529 30.0014 23.75ZM45.5858 25.7813C45.5109 25.6352 45.408 25.5053 45.2829 25.3989C45.1578 25.2926 45.013 25.212 44.8567 25.1616C44.7004 25.1113 44.5358 25.0922 44.3721 25.1055C44.2085 25.1188 44.0491 25.1642 43.903 25.2391C43.7569 25.314 43.627 25.4169 43.5207 25.542C43.4144 25.6671 43.3337 25.8119 43.2834 25.9682C43.233 26.1245 43.214 26.2891 43.2272 26.4527C43.2405 26.6164 43.2859 26.7758 43.3608 26.9219C44.2856 28.7379 44.8317 30.723 44.966 32.7565C45.1003 34.79 44.82 36.8297 44.1421 38.7516L15.8452 38.7406C15.0557 36.4776 14.8186 34.0585 15.1537 31.6852C15.4887 29.3119 16.3863 27.0531 17.7714 25.0971C19.1566 23.141 20.9893 21.5444 23.1167 20.4403C25.2441 19.3363 27.6046 18.7567 30.0014 18.75H30.1389C32.4669 18.7646 34.7589 19.3267 36.8296 20.3906C36.9761 20.4713 37.1372 20.5217 37.3036 20.5389C37.4699 20.5561 37.638 20.5398 37.7979 20.4909C37.9578 20.442 38.1063 20.3615 38.2345 20.2541C38.3627 20.1468 38.4681 20.0149 38.5445 19.8661C38.6208 19.7173 38.6665 19.5547 38.6788 19.388C38.6912 19.2212 38.67 19.0537 38.6164 18.8953C38.5629 18.7368 38.4781 18.5908 38.3671 18.4657C38.2561 18.3407 38.1211 18.2392 37.9702 18.1672C34.8529 16.5705 31.3283 15.9459 27.8522 16.3742C24.3761 16.8025 21.1085 18.264 18.4721 20.5696C15.8356 22.8751 13.9516 25.9188 13.0638 29.3068C12.176 32.6947 12.3251 36.2712 13.4921 39.5734C13.6644 40.0627 13.9841 40.4866 14.4071 40.7868C14.8302 41.087 15.3358 41.2488 15.8546 41.25H44.1467C44.6652 41.2503 45.171 41.0894 45.594 40.7896C46.017 40.4898 46.3363 40.0659 46.5077 39.5766C47.2961 37.3342 47.6209 34.9551 47.4624 32.5835C47.3039 30.2119 46.6655 27.8972 45.5858 25.7797V25.7813Z" fill="#1A8EF7"/>
</svg>
