<svg width="60" height="60" viewBox="0 0 60 60" fill="none" xmlns="http://www.w3.org/2000/svg">
<rect width="60" height="60" rx="30" fill="#1A8EF7" fill-opacity="0.3"/>
<path d="M49.7331 26.861L45.7456 18.8828C45.5987 18.5892 45.3954 18.3274 45.1473 18.1123C44.8992 17.8972 44.6112 17.7331 44.2996 17.6294C43.9881 17.5256 43.6592 17.4843 43.3317 17.5077C43.0042 17.531 42.6845 17.6187 42.3909 17.7657L38.505 19.7078L30.319 17.5422C30.109 17.4876 29.8884 17.4876 29.6784 17.5422L21.4925 19.7078L17.6065 17.7657C17.3129 17.6187 16.9932 17.531 16.6657 17.5077C16.3382 17.4843 16.0093 17.5256 15.6978 17.6294C15.3863 17.7331 15.0982 17.8972 14.8501 18.1123C14.602 18.3274 14.3987 18.5892 14.2518 18.8828L10.2643 26.8594C10.1174 27.153 10.0297 27.4727 10.0063 27.8002C9.98297 28.1277 10.0243 28.4566 10.1281 28.7681C10.2318 29.0797 10.3959 29.3677 10.611 29.6158C10.826 29.8639 11.0879 30.0672 11.3815 30.2141L15.6003 32.325L24.2706 38.5172C24.3983 38.6081 24.542 38.6744 24.694 38.7125L34.694 41.2125C34.9034 41.265 35.1229 41.2624 35.331 41.2049C35.5391 41.1474 35.7288 41.037 35.8815 40.8844L44.4862 32.2782L48.6143 30.2141C49.207 29.9174 49.6576 29.3976 49.8671 28.7688C50.0765 28.14 50.0278 27.4538 49.7315 26.861H49.7331ZM41.1565 32.075L35.78 27.7688C35.5391 27.5759 35.2354 27.4789 34.9273 27.4965C34.6192 27.5141 34.3285 27.645 34.1112 27.8641C31.3284 30.6672 28.2268 30.3125 26.2487 29.0625L33.005 22.5H37.9753L42.2268 31.0016L41.1565 32.075ZM16.4878 20L19.6862 21.5969L15.6909 29.5735L12.4987 27.9782L16.4878 20ZM34.6128 38.6141L25.5331 36.3453L17.8456 30.8547L22.2206 22.1047L29.9987 20.0438L31.53 20.4485L24.4987 27.2735L24.4862 27.2875C24.2215 27.5522 24.0197 27.8729 23.8955 28.2261C23.7713 28.5792 23.7281 28.9557 23.7689 29.3278C23.8097 29.6998 23.9335 30.058 24.1312 30.3758C24.3289 30.6937 24.5955 30.963 24.9112 31.1641C28.1237 33.2157 32.0003 32.8828 35.0534 30.3828L39.3737 33.8532L34.6128 38.6141ZM44.3003 29.5719L40.3128 21.6032L43.5096 20L47.4987 27.9782L44.3003 29.5719ZM30.5893 44.0516C30.5218 44.3218 30.366 44.5616 30.1466 44.7332C29.9272 44.9047 29.6569 44.9981 29.3784 44.9985C29.2757 44.9983 29.1734 44.9857 29.0737 44.961L22.5628 43.3328C22.4105 43.2953 22.2668 43.229 22.1393 43.1375L18.0221 40.1969C17.769 39.9981 17.6023 39.7094 17.5567 39.3908C17.5111 39.0721 17.5902 38.7482 17.7774 38.4865C17.9647 38.2247 18.2457 38.0452 18.562 37.9855C18.8783 37.9257 19.2054 37.9903 19.4753 38.1657L23.3987 40.9688L29.6862 42.5375C30.0078 42.618 30.2842 42.8228 30.4547 43.107C30.6253 43.3913 30.6759 43.7316 30.5956 44.0532L30.5893 44.0516Z" fill="#1A8EF7"/>
</svg>
