<svg width="60" height="60" viewBox="0 0 60 60" fill="none" xmlns="http://www.w3.org/2000/svg">
<rect width="60" height="60" rx="30" fill="#1A8EF7" fill-opacity="0.3"/>
<path d="M30 16.25C27.0333 16.25 24.1332 17.1297 21.6665 18.778C19.1997 20.4262 17.2771 22.7689 16.1418 25.5097C15.0065 28.2506 14.7094 31.2666 15.2882 34.1764C15.867 37.0861 17.2956 39.7588 19.3934 41.8566C21.4912 43.9544 24.1639 45.383 27.0737 45.9618C29.9834 46.5406 32.9994 46.2435 35.7403 45.1082C38.4811 43.9729 40.8238 42.0503 42.472 39.5836C44.1203 37.1168 45 34.2167 45 31.25C44.9955 27.2731 43.4136 23.4605 40.6016 20.6484C37.7895 17.8364 33.9769 16.2545 30 16.25ZM30 43.75C27.5277 43.75 25.111 43.0169 23.0554 41.6434C20.9998 40.2699 19.3976 38.3176 18.4515 36.0335C17.5054 33.7495 17.2579 31.2361 17.7402 28.8114C18.2225 26.3866 19.413 24.1593 21.1612 22.4112C22.9093 20.663 25.1366 19.4725 27.5614 18.9902C29.9861 18.5079 32.4995 18.7554 34.7836 19.7015C37.0676 20.6476 39.0199 22.2498 40.3934 24.3054C41.7669 26.361 42.5 28.7777 42.5 31.25C42.4963 34.5641 41.1781 37.7413 38.8347 40.0847C36.4913 42.4281 33.3141 43.7463 30 43.75ZM37.1344 24.1156C37.2506 24.2317 37.3428 24.3696 37.4057 24.5213C37.4686 24.6731 37.501 24.8357 37.501 25C37.501 25.1643 37.4686 25.3269 37.4057 25.4787C37.3428 25.6304 37.2506 25.7683 37.1344 25.8844L30.8844 32.1344C30.7682 32.2505 30.6304 32.3426 30.4786 32.4055C30.3269 32.4683 30.1643 32.5007 30 32.5007C29.8358 32.5007 29.6731 32.4683 29.5214 32.4055C29.3696 32.3426 29.2318 32.2505 29.1156 32.1344C28.9995 32.0182 28.9074 31.8804 28.8445 31.7286C28.7817 31.5769 28.7493 31.4142 28.7493 31.25C28.7493 31.0858 28.7817 30.9231 28.8445 30.7714C28.9074 30.6196 28.9995 30.4818 29.1156 30.3656L35.3656 24.1156C35.4817 23.9994 35.6196 23.9072 35.7713 23.8443C35.9231 23.7814 36.0857 23.749 36.25 23.749C36.4143 23.749 36.5769 23.7814 36.7287 23.8443C36.8804 23.9072 37.0183 23.9994 37.1344 24.1156ZM25 12.5C25 12.1685 25.1317 11.8505 25.3661 11.6161C25.6005 11.3817 25.9185 11.25 26.25 11.25H33.75C34.0815 11.25 34.3995 11.3817 34.6339 11.6161C34.8683 11.8505 35 12.1685 35 12.5C35 12.8315 34.8683 13.1495 34.6339 13.3839C34.3995 13.6183 34.0815 13.75 33.75 13.75H26.25C25.9185 13.75 25.6005 13.6183 25.3661 13.3839C25.1317 13.1495 25 12.8315 25 12.5Z" fill="#1A8EF7"/>
</svg>
