<svg width="60" height="60" viewBox="0 0 60 60" fill="none" xmlns="http://www.w3.org/2000/svg">
<rect width="60" height="60" rx="30" fill="#1A8EF7" fill-opacity="0.3"/>
<path d="M46.0813 43.125C43.7016 39.0109 40.0344 36.0609 35.7547 34.6625C37.8717 33.4023 39.5164 31.482 40.4363 29.1965C41.3563 26.9111 41.5005 24.3869 40.847 22.0115C40.1935 19.6361 38.7783 17.5409 36.8188 16.0477C34.8592 14.5544 32.4637 13.7457 30.0001 13.7457C27.5364 13.7457 25.1409 14.5544 23.1813 16.0477C21.2218 17.5409 19.8066 19.6361 19.1531 22.0115C18.4996 24.3869 18.6439 26.9111 19.5638 29.1965C20.4837 31.482 22.1284 33.4023 24.2454 34.6625C19.9657 36.0594 16.2985 39.0094 13.9188 43.125C13.8315 43.2673 13.7737 43.4256 13.7486 43.5906C13.7235 43.7557 13.7317 43.924 13.7728 44.0858C13.8138 44.2476 13.8868 44.3996 13.9875 44.5327C14.0883 44.6658 14.2146 44.7774 14.3592 44.8609C14.5037 44.9444 14.6635 44.9981 14.8291 45.0188C14.9948 45.0395 15.1629 45.0269 15.3235 44.9816C15.4842 44.9363 15.6342 44.8593 15.7646 44.7551C15.895 44.6509 16.0032 44.5217 16.0829 44.375C19.0266 39.2875 24.2297 36.25 30.0001 36.25C35.7704 36.25 40.9735 39.2875 43.9172 44.375C43.9969 44.5217 44.1051 44.6509 44.2355 44.7551C44.366 44.8593 44.5159 44.9363 44.6766 44.9816C44.8372 45.0269 45.0054 45.0395 45.171 45.0188C45.3366 44.9981 45.4964 44.9444 45.641 44.8609C45.7855 44.7774 45.9119 44.6658 46.0126 44.5327C46.1133 44.3996 46.1863 44.2476 46.2274 44.0858C46.2684 43.924 46.2766 43.7557 46.2515 43.5906C46.2265 43.4256 46.1686 43.2673 46.0813 43.125ZM21.2501 25C21.2501 23.2694 21.7632 21.5777 22.7247 20.1387C23.6862 18.6998 25.0527 17.5783 26.6516 16.916C28.2504 16.2538 30.0098 16.0805 31.7071 16.4181C33.4044 16.7557 34.9635 17.5891 36.1872 18.8128C37.4109 20.0365 38.2443 21.5956 38.5819 23.2929C38.9195 24.9903 38.7463 26.7496 38.084 28.3485C37.4217 29.9473 36.3002 31.3139 34.8613 32.2753C33.4224 33.2368 31.7306 33.75 30.0001 33.75C27.6802 33.7475 25.456 32.8248 23.8156 31.1844C22.1752 29.544 21.2525 27.3199 21.2501 25Z" fill="#1A8EF7"/>
</svg>
